<?xml version="1.0" standalone="no"?>
<!DOCTYPE svg PUBLIC "-//W3C//DTD SVG 20010904//EN"
 "http://www.w3.org/TR/2001/REC-SVG-20010904/DTD/svg10.dtd">
<svg version="1.0" xmlns="http://www.w3.org/2000/svg"
 width="512.000000pt" height="512.000000pt" viewBox="0 0 512.000000 512.000000"
 preserveAspectRatio="xMidYMid meet">
<metadata>
Created by potrace 1.14, written by Peter Selinger 2001-2017
</metadata>
<g transform="translate(0.000000,512.000000) scale(0.100000,-0.100000)"
fill="#000000" stroke="none">
<path d="M2546 5083 c-14 -14 -23 -29 -21 -34 3 -4 1 -10 -3 -13 -5 -3 -8
-139 -8 -303 1 -270 3 -301 19 -325 18 -26 77 -56 77 -38 0 5 9 12 21 15 38
13 43 47 44 350 2 240 -1 295 -13 322 -25 53 -78 64 -116 26z"/>
<path d="M673 4197 c-30 -9 -34 -15 -61 -82 -2 -5 1 -3 7 5 9 12 11 11 11 -7
0 -14 17 -38 41 -60 23 -21 53 -48 66 -60 13 -13 27 -23 31 -23 4 0 23 -15 43
-33 63 -55 89 -77 94 -77 3 0 14 -8 25 -17 56 -50 68 -61 102 -87 20 -15 42
-25 48 -21 5 3 10 2 10 -3 0 -12 51 -2 66 12 22 22 33 52 24 66 -5 8 -7 17 -5
20 4 7 -50 70 -60 70 -3 0 -17 12 -30 26 -14 15 -25 23 -25 19 0 -4 -8 1 -17
11 -10 11 -52 46 -93 79 -41 32 -76 63 -78 67 -2 4 -8 8 -13 8 -6 0 -20 10
-33 23 -71 68 -100 80 -153 64z"/>
<path d="M4347 4187 c-36 -22 -130 -98 -135 -109 -2 -5 -7 -8 -12 -8 -5 0 -26
-16 -48 -36 -22 -20 -43 -35 -46 -35 -3 1 -19 -13 -35 -29 -15 -17 -31 -30
-34 -30 -3 0 -17 -10 -30 -22 -13 -13 -33 -30 -45 -38 -21 -14 -38 -46 -34
-62 1 -5 -2 -8 -7 -8 -23 0 13 -63 43 -75 42 -18 75 -3 174 77 42 35 86 70 96
78 11 8 30 25 43 37 13 12 23 19 23 16 0 -3 9 4 20 17 11 13 20 21 20 18 0 -3
19 12 42 33 24 22 48 39 53 39 11 0 40 58 38 78 0 6 -1 20 -2 30 -1 19 -40 43
-74 47 -9 1 -32 -7 -50 -18z"/>
<path d="M2410 4080 c-19 -3 -42 -5 -50 -5 -8 0 -18 -4 -22 -10 -5 -6 -8 -5
-8 4 0 11 -3 11 -15 1 -8 -7 -21 -10 -30 -7 -8 4 -17 2 -21 -4 -3 -6 -12 -8
-19 -5 -7 2 -16 2 -19 -2 -4 -3 -12 -7 -19 -8 -83 -18 -277 -90 -289 -108 -4
-6 -8 -7 -8 -3 0 4 -17 -4 -37 -18 -21 -14 -41 -25 -46 -25 -12 0 -86 -50
-162 -110 -75 -59 -191 -172 -240 -233 -16 -21 -38 -48 -47 -59 -10 -12 -18
-27 -18 -35 0 -7 -6 -16 -14 -19 -8 -3 -20 -19 -26 -35 -7 -16 -16 -29 -21
-29 -5 0 -9 -7 -9 -16 0 -9 -8 -28 -19 -42 -10 -15 -22 -37 -25 -49 -4 -13
-12 -23 -17 -23 -6 0 -7 -5 -4 -10 4 -6 3 -16 -2 -23 -6 -7 -15 -25 -21 -42
-6 -16 -17 -43 -23 -60 -7 -16 -13 -37 -13 -45 -1 -8 -4 -20 -8 -26 -4 -6 -9
-22 -12 -37 -3 -15 -7 -35 -10 -45 -13 -44 -29 -155 -30 -214 0 -16 -4 -28 -9
-28 -4 0 -4 -7 1 -15 4 -9 5 -40 2 -70 -3 -30 -4 -55 -1 -55 4 0 7 -27 8 -60
2 -33 5 -73 8 -88 3 -15 8 -43 11 -62 10 -64 59 -233 73 -255 4 -5 18 -37 31
-70 13 -33 26 -62 29 -65 4 -3 17 -27 31 -55 14 -27 28 -51 33 -53 4 -2 7 -10
7 -18 0 -8 4 -14 8 -14 5 0 15 -12 23 -27 13 -27 44 -65 81 -105 10 -10 16
-18 13 -18 -7 0 129 -133 175 -170 23 -19 48 -39 54 -45 16 -13 47 -33 66 -42
8 -4 23 -15 33 -26 9 -11 17 -17 17 -13 0 3 18 -5 40 -19 22 -14 40 -22 40
-18 0 5 4 3 8 -3 7 -10 33 -23 117 -59 22 -9 48 -21 57 -26 10 -5 29 -9 42 -9
14 0 27 -4 30 -9 3 -5 23 -12 43 -16 21 -5 45 -10 53 -12 8 -2 24 -5 35 -7 11
-2 20 -4 20 -5 0 -14 355 -34 378 -23 5 2 30 6 55 8 73 5 117 12 164 25 53 15
68 19 91 21 9 1 17 7 17 12 0 5 3 7 6 4 3 -4 20 0 39 7 18 8 35 11 39 8 3 -4
6 -1 6 5 0 7 3 11 8 10 4 -1 20 4 35 10 16 7 33 12 38 12 5 0 9 5 9 10 0 6 5
10 10 10 14 0 102 42 116 55 7 5 31 22 55 37 65 41 82 52 95 63 6 6 36 30 65
55 29 25 76 69 103 99 28 30 59 62 68 72 9 9 14 20 10 23 -3 3 -1 6 5 6 6 0
28 26 49 58 22 31 41 59 44 62 3 3 11 16 18 30 7 14 25 48 41 77 16 28 27 54
23 57 -3 3 0 6 7 6 7 0 9 4 6 10 -3 5 -1 10 4 10 6 0 11 6 11 14 0 7 7 26 14
42 8 15 13 31 10 36 -3 4 0 8 5 8 6 0 10 3 10 8 -1 4 0 9 1 12 1 3 3 12 5 20
8 31 14 56 23 85 8 29 7 30 -42 48 -28 10 -55 19 -61 20 -5 2 -34 11 -63 21
-29 10 -55 16 -58 13 -3 -2 -7 -17 -10 -33 -3 -15 -8 -32 -12 -38 -3 -6 -7
-15 -7 -21 -1 -5 -5 -19 -9 -30 -38 -98 -64 -157 -88 -198 -15 -26 -28 -52
-28 -57 0 -4 -4 -10 -8 -12 -5 -1 -23 -25 -42 -53 -65 -96 -173 -203 -284
-282 -17 -12 -35 -26 -41 -31 -5 -4 -25 -15 -42 -22 -18 -8 -33 -18 -33 -21 0
-7 -40 -22 -52 -20 -5 1 -8 -3 -8 -7 0 -9 -100 -48 -112 -44 -5 1 -8 -2 -8 -6
0 -5 -6 -9 -12 -9 -7 0 -33 -6 -58 -13 -25 -8 -48 -14 -52 -16 -5 -1 -9 -3
-10 -4 -2 -1 -14 -3 -28 -5 -14 -2 -45 -6 -70 -10 -25 -3 -61 -7 -80 -8 -19
-2 -41 -6 -48 -11 -6 -4 -12 -4 -12 1 0 4 -37 8 -83 9 -45 1 -99 4 -119 7 -21
4 -55 10 -75 13 -21 3 -46 11 -56 16 -10 5 -21 7 -24 4 -3 -3 -15 0 -27 6 -11
7 -27 13 -33 15 -26 6 -39 10 -68 22 -41 17 -185 90 -199 102 -6 5 -39 29 -72
54 -84 62 -169 146 -237 235 -31 41 -62 81 -67 87 -6 7 -7 13 -3 13 4 0 3 4
-3 8 -29 18 -132 269 -136 330 -1 6 -4 12 -8 12 -3 0 -7 12 -8 28 -2 27 -9 67
-12 67 -2 0 -12 141 -12 180 0 54 10 184 17 215 3 14 7 36 10 50 14 78 87 271
113 303 8 9 11 17 6 17 -5 0 -4 4 1 8 6 4 19 23 29 42 11 19 24 40 28 45 4 6
19 24 33 41 14 18 25 35 25 38 0 3 26 32 57 63 31 32 56 61 55 66 -1 4 5 7 13
7 8 0 15 3 15 8 0 8 98 87 115 93 6 1 18 10 28 20 10 9 35 25 55 35 20 11 53
28 72 40 19 12 38 22 42 23 11 2 24 7 100 35 36 13 69 22 72 19 3 -4 6 -2 6 4
0 6 11 9 25 8 14 -2 25 0 25 5 0 4 10 8 23 8 12 0 42 4 67 9 25 5 64 8 87 8
24 0 43 3 43 7 0 4 13 3 28 -2 16 -4 36 -4 45 2 11 6 17 5 17 -2 0 -7 6 -8 19
-1 10 6 21 7 25 4 8 -8 41 -12 99 -13 20 -1 35 -5 33 -9 -3 -4 5 -7 17 -8 32
-1 78 -11 124 -27 23 -8 44 -12 47 -9 3 4 6 0 6 -7 0 -7 3 -10 7 -7 3 4 11 3
17 -1 6 -5 37 -19 69 -32 31 -12 57 -26 57 -31 0 -5 7 -6 15 -3 8 4 15 2 15
-3 0 -5 16 -17 35 -26 19 -9 35 -22 35 -29 0 -6 3 -9 6 -5 17 17 251 -195 292
-265 9 -15 20 -28 24 -28 4 0 8 -7 8 -15 0 -8 3 -15 8 -15 4 0 18 -20 32 -45
14 -25 29 -45 34 -45 5 0 6 -3 3 -6 -7 -7 22 -64 38 -76 6 -4 7 -8 3 -8 -4 0
3 -25 17 -56 13 -30 24 -58 23 -62 -1 -4 4 -20 10 -35 7 -15 14 -42 17 -60 3
-18 9 -41 12 -52 7 -22 9 -33 11 -84 2 -27 5 -32 20 -26 9 3 37 9 62 12 52 6
75 11 75 14 0 1 14 3 30 4 17 2 31 4 33 5 1 1 8 3 15 4 13 1 13 22 1 96 -4 25
-7 54 -8 65 0 11 -7 24 -14 28 -7 5 -10 12 -7 16 4 8 -5 44 -22 91 -3 8 -7 21
-9 28 -2 13 -15 41 -55 128 -10 22 -19 46 -19 52 0 7 -4 12 -9 12 -5 0 -13 10
-17 23 -3 12 -24 48 -45 79 -22 32 -39 62 -39 68 0 5 -4 10 -8 10 -5 0 -23 20
-41 44 -37 52 -147 166 -210 216 -24 19 -48 40 -55 45 -11 10 -83 59 -121 82
-59 36 -229 114 -290 133 -38 12 -77 24 -85 27 -8 4 -28 8 -45 10 -16 3 -32 8
-35 11 -3 4 -16 8 -30 9 -96 8 -135 12 -135 14 0 5 -253 4 -285 -1z"/>
<path d="M2460 3520 c0 -3 -12 -6 -27 -5 -16 0 -57 -8 -93 -18 -36 -10 -72
-20 -80 -22 -40 -9 -60 -18 -60 -28 0 -6 -3 -8 -6 -4 -7 7 -99 -40 -141 -72
-16 -12 -41 -31 -57 -44 -51 -38 -182 -177 -168 -177 3 0 -4 -10 -16 -23 -22
-23 -114 -209 -111 -224 1 -4 -3 -21 -9 -36 -7 -16 -10 -33 -6 -38 3 -5 1 -9
-3 -9 -12 0 -16 -48 -15 -195 0 -136 3 -185 12 -185 3 0 7 -8 8 -17 2 -23 7
-44 15 -63 3 -8 7 -24 9 -35 2 -11 9 -26 16 -33 7 -8 10 -18 7 -23 -4 -5 -1
-9 4 -9 6 0 11 -6 11 -12 0 -16 64 -121 105 -172 51 -65 110 -120 175 -166 19
-13 37 -27 40 -30 10 -12 176 -88 215 -98 22 -6 51 -15 65 -19 42 -12 53 -13
118 -17 35 -2 65 -6 68 -9 3 -3 11 -4 17 -2 7 3 39 7 72 9 33 3 69 7 80 9 62
13 101 20 108 19 4 -1 7 2 7 6 0 5 6 9 13 10 36 3 87 26 182 81 76 44 73 42
162 131 104 104 113 114 113 126 0 6 9 19 20 29 10 9 19 20 18 24 -2 9 36 85
47 93 6 4 7 8 2 8 -4 0 0 11 9 25 9 14 13 25 9 25 -4 0 -3 6 3 13 6 6 10 14
10 17 0 3 5 23 10 45 6 22 13 54 16 70 2 17 5 30 6 30 1 0 3 28 5 63 1 39 -1
60 -7 54 -5 -5 -10 -20 -12 -33 -1 -13 -13 -46 -26 -74 -13 -27 -22 -53 -22
-57 1 -5 -3 -8 -9 -8 -5 0 -7 -4 -4 -10 3 -5 1 -10 -4 -10 -6 0 -10 -3 -8 -8
2 -8 -56 -103 -88 -141 -19 -24 -94 -98 -142 -141 -13 -11 -25 -19 -27 -18 -3
2 -14 -5 -26 -14 -11 -10 -20 -15 -20 -12 0 3 -12 -4 -26 -15 -15 -12 -35 -21
-45 -21 -11 0 -19 -5 -19 -10 0 -6 -6 -10 -12 -9 -7 1 -26 -3 -42 -10 -16 -6
-38 -13 -50 -16 -11 -2 -21 -4 -21 -5 0 -7 -156 -26 -205 -24 -114 4 -161 8
-165 15 -3 4 -16 6 -30 4 -14 -1 -25 2 -25 8 0 6 -3 8 -6 5 -9 -9 -138 47
-186 80 -56 39 -118 99 -110 106 3 3 1 6 -5 6 -13 0 -53 65 -53 86 0 8 -5 14
-12 14 -6 0 -8 3 -5 6 3 4 2 15 -4 26 -6 11 -13 32 -16 46 -8 45 -10 162 -2
162 4 0 6 8 4 18 -1 9 6 38 15 65 10 26 15 47 12 47 -4 0 -2 4 3 8 6 4 19 25
30 47 23 47 72 114 98 135 11 8 27 23 35 33 9 9 22 17 29 17 7 0 13 4 13 8 0
9 106 55 127 55 7 0 13 4 13 8 0 4 8 8 18 8 18 1 67 8 67 11 0 4 88 11 153 12
47 1 67 5 57 10 -8 5 -20 6 -25 3 -6 -3 -10 -1 -10 6 0 6 -8 9 -20 6 -11 -3
-22 -2 -24 2 -7 11 -183 3 -216 -9 -3 -1 -9 -2 -14 -1 -5 1 -26 -5 -47 -13
-22 -9 -39 -12 -39 -8 0 4 -4 3 -8 -3 -4 -5 -29 -21 -57 -35 -27 -14 -61 -35
-75 -47 -14 -13 -30 -23 -37 -23 -7 0 -13 -7 -13 -15 0 -8 -3 -14 -8 -13 -7 3
-56 -45 -95 -91 -20 -24 -39 -20 -31 7 21 64 73 166 101 196 13 14 23 28 23
31 0 26 180 155 216 155 8 0 14 5 14 12 0 6 2 9 5 6 3 -3 34 3 69 12 68 19
256 26 256 10 0 -5 6 -7 14 -4 21 8 206 -62 206 -78 0 -5 5 -8 11 -8 6 0 16
-6 24 -12 7 -7 33 -29 58 -48 45 -34 48 -44 32 -85 -9 -22 -83 -116 -100 -127
-6 -3 -24 -18 -40 -32 -47 -41 -53 -46 -65 -46 -5 0 -10 -4 -10 -9 0 -5 -15
-15 -34 -21 -19 -6 -36 -14 -38 -18 -6 -14 -131 -60 -178 -65 -8 -1 -21 -7
-27 -14 -7 -6 -24 -10 -38 -9 -14 2 -25 0 -25 -4 0 -4 -6 -7 -12 -8 -58 -7
-88 -12 -118 -18 -19 -4 -54 -7 -77 -7 -23 -1 -39 -5 -36 -10 3 -5 -4 -4 -15
2 -13 7 -23 7 -27 2 -3 -6 -19 -8 -35 -6 -38 5 -39 -12 -3 -26 15 -6 41 -16
58 -24 59 -26 114 -40 188 -48 21 -2 40 -7 44 -11 3 -3 12 -1 20 5 10 9 13 8
13 -2 0 -10 2 -11 8 -2 5 8 19 9 45 4 20 -5 37 -6 37 -2 0 3 26 7 58 7 89 2
142 8 142 16 0 5 3 7 8 6 9 -2 70 12 102 24 14 5 25 8 26 6 0 -2 8 3 17 11 10
7 17 10 17 7 0 -4 7 0 16 8 8 9 20 14 25 11 5 -4 9 -2 9 4 0 6 11 13 25 17 14
3 25 10 25 15 0 5 5 9 11 9 32 0 193 142 250 220 14 19 42 65 62 101 l36 66
-21 39 c-11 22 -26 46 -34 55 -8 8 -14 19 -14 23 0 25 -204 231 -224 227 -4
-1 -13 4 -21 11 -35 31 -45 38 -59 38 -8 0 -16 3 -18 8 -9 21 -205 90 -268 93
-19 2 -43 7 -54 12 -14 7 -16 6 -11 -4 6 -8 4 -10 -6 -3 -15 9 -169 13 -169 4z"/>
<path d="M2256 1005 c-35 -9 -113 -55 -93 -55 3 0 -1 -16 -9 -35 -8 -19 -11
-35 -8 -35 4 0 2 -6 -3 -12 -6 -7 -9 -72 -7 -148 2 -156 17 -208 68 -239 48
-30 83 -33 412 -34 l309 -2 0 -133 c0 -81 -4 -136 -10 -140 -5 -4 -153 -7
-328 -7 -355 0 -327 -7 -323 78 3 50 -13 75 -36 61 -7 -5 -17 -9 -23 -11 -5
-1 -21 -5 -35 -8 -14 -3 -32 -7 -40 -9 -12 -2 -15 -18 -15 -70 0 -37 3 -70 7
-72 4 -3 8 -16 8 -30 0 -13 5 -24 10 -24 6 0 10 -6 10 -12 1 -19 39 -43 85
-54 22 -6 192 -9 380 -9 290 1 344 4 370 17 74 39 92 98 88 295 -1 76 -4 145
-6 153 -6 25 -25 64 -39 81 -15 19 -105 52 -118 44 -5 -3 -11 1 -13 7 -3 8 -6
9 -6 2 -1 -9 -51 -11 -98 -3 -4 1 -10 0 -13 -1 -17 -7 -90 -5 -90 3 0 5 -6 4
-14 -2 -11 -9 -15 -9 -19 1 -3 7 -6 8 -6 3 -1 -9 -108 -12 -146 -5 -6 2 -12 1
-15 0 -20 -7 -40 -7 -40 1 0 6 -6 7 -12 3 -14 -9 -87 -9 -95 0 -3 2 -16 1 -29
-4 -13 -5 -24 -6 -25 -2 -1 10 -1 213 0 237 1 20 7 20 309 20 l307 0 -1 -58 0
-57 39 5 c21 4 50 10 63 15 13 5 24 7 24 4 0 -4 7 -1 14 6 11 9 14 27 10 73
-3 33 -8 66 -12 71 -4 6 -7 13 -7 16 -1 18 -38 52 -71 67 -34 14 -81 17 -352
18 -196 0 -329 -3 -356 -10z"/>
</g>
</svg>
